# Deliberately unmistakable Wildlands Toolkit attachment test mesh.
# Y is the barrel axis, Z is up. This is a 0.50 m x 0.86 m x 0.45 m solid block.
o WT_AK12_GiantBlock

v -0.250 0.040 -0.150
v  0.250 0.040 -0.150
v  0.250 0.900 -0.150
v -0.250 0.900 -0.150
v -0.250 0.040  0.300
v  0.250 0.040  0.300
v  0.250 0.900  0.300
v -0.250 0.900  0.300

vt 0 0
vt 1 0
vt 1 1
vt 0 1

vn  0  0 -1
vn  0  0  1
vn -1  0  0
vn  1  0  0
vn  0 -1  0
vn  0  1  0

g GiantBlock
# bottom
f 1/1/1 3/3/1 2/2/1
f 1/1/1 4/4/1 3/3/1
# top
f 5/1/2 6/2/2 7/3/2
f 5/1/2 7/3/2 8/4/2
# left
f 1/1/3 5/2/3 8/3/3
f 1/1/3 8/3/3 4/4/3
# right
f 2/1/4 3/4/4 7/3/4
f 2/1/4 7/3/4 6/2/4
# chamber end
f 1/1/5 2/2/5 6/3/5
f 1/1/5 6/3/5 5/4/5
# muzzle end
f 4/1/6 8/2/6 7/3/6
f 4/1/6 7/3/6 3/4/6
